<svg version="1.1" id="Layer_1" xmlns="http://www.w3.org/2000/svg" xmlns:xlink="http://www.w3.org/1999/xlink" x="0px" y="0px"
	 width="100%" viewBox="0 0 601 601" enable-background="new 0 0 601 601" xml:space="preserve">
<path fill="#FFFEFE" opacity="1.000000" stroke="none" 
	d="
M602.000000,262.000000 
	C602.000000,375.255524 602.000000,488.511017 602.000000,602.000000 
	C503.978699,602.000000 405.957184,602.000000 307.637878,601.660217 
	C311.978760,599.203735 317.117432,597.783813 321.181946,594.867004 
	C397.318359,540.229980 473.299286,485.376434 549.396790,430.685120 
	C559.399597,423.496033 564.295532,414.224060 564.243958,401.888916 
	C564.092651,365.730560 564.193481,329.571228 564.178650,293.412262 
	C564.178040,291.832306 564.010986,290.252380 563.926880,288.767609 
	C561.622437,288.767609 559.864502,288.767609 557.809937,288.767609 
	C557.809937,290.903442 557.809937,292.722168 557.809937,294.540924 
	C557.809937,329.533447 557.663208,364.526978 557.893677,399.517975 
	C557.969055,410.969543 553.804321,419.387634 544.368774,426.153564 
	C468.753632,480.374573 393.309143,534.833496 317.811920,589.218933 
	C306.249695,597.547913 296.920441,597.596985 285.322296,589.244629 
	C209.276962,534.480896 133.264664,479.671265 57.181370,424.960388 
	C49.228088,419.241272 45.444626,411.933960 45.491158,402.089661 
	C45.661285,366.098114 45.558468,330.105316 45.558464,294.112976 
	C45.558464,292.346893 45.558464,290.580811 45.558464,288.808929 
	C42.957436,288.808929 41.058952,288.808929 38.981693,288.808929 
	C38.981693,290.997070 38.981693,292.824249 38.981693,294.651459 
	C38.981693,330.477142 39.125267,366.303741 38.902332,402.128052 
	C38.826252,414.353333 43.654541,423.452271 53.473808,430.509888 
	C115.242172,474.906128 176.810959,519.581299 238.729874,563.766052 
	C257.178192,576.930603 274.296265,592.130798 295.000000,602.000000 
	C197.067413,602.000000 99.134827,602.000000 1.000000,602.000000 
	C1.000000,488.978638 1.000000,375.957184 1.259293,262.497925 
	C1.689692,262.028473 1.860799,261.996735 2.487654,262.053101 
	C201.130356,262.149292 399.317322,262.157867 597.504272,262.156769 
	C598.663513,262.156738 599.822815,262.022278 601.233704,262.021698 
	C601.656921,262.061859 601.828430,262.030914 602.000000,262.000000 
M240.417847,387.890503 
	C231.045868,410.445648 221.664917,432.997040 212.307709,455.558319 
	C209.681671,461.889954 211.274063,464.500336 217.939713,464.509338 
	C249.772446,464.552216 281.605286,464.555695 313.438019,464.504944 
	C319.782776,464.494812 321.706451,461.425781 319.255219,455.455780 
	C315.910461,447.309601 312.332031,439.256378 309.138885,431.052368 
	C307.837006,427.707611 305.709747,426.443359 302.345734,426.463959 
	C295.012848,426.508789 287.679199,426.504303 280.346436,426.448059 
	C278.625977,426.434875 276.907715,426.136047 274.250885,425.877289 
	C283.273682,404.279205 291.963165,383.478973 300.652679,362.678741 
	C301.175537,362.720276 301.698425,362.761780 302.221313,362.803314 
	C303.108673,364.679596 304.072815,366.523804 304.871918,368.436951 
	C317.229797,398.022614 329.644318,427.585144 341.834503,457.239899 
	C343.987305,462.476929 347.286835,464.687683 352.856476,464.585724 
	C363.519379,464.390411 374.188629,464.569336 384.854828,464.514191 
	C391.668030,464.478973 393.406403,461.963226 390.851929,455.806580 
	C370.159729,405.936188 349.413177,356.088318 328.767120,306.198853 
	C326.713715,301.236908 323.423035,299.019104 318.046295,299.104736 
	C307.049255,299.279877 296.045471,299.282776 285.048584,299.103485 
	C279.680847,299.015961 276.364685,301.169464 274.315796,306.162048 
	C263.215210,333.211304 251.970612,360.201477 240.417847,387.890503 
z"/>
<path fill="#FA1001" opacity="1.000000" stroke="none" 
	d="
M600.982056,261.950592 
	C599.822815,262.022278 598.663513,262.156738 597.504272,262.156769 
	C399.317322,262.157867 201.130356,262.149292 2.473827,261.586914 
	C1.973141,198.993439 1.942028,136.954163 2.282683,74.733337 
	C4.486848,74.526871 6.319247,74.480156 8.151646,74.480125 
	C204.481842,74.476830 400.812012,74.478188 597.142212,74.457306 
	C598.761475,74.457138 600.380737,74.159004 602.000000,74.000000 
	C602.000000,74.444443 602.000000,74.888885 601.680908,75.939880 
	C601.242188,78.528641 601.019043,80.510811 601.018250,82.493080 
	C600.992737,142.312241 600.989075,202.131424 600.982056,261.950592 
M472.180511,182.478561 
	C472.180511,169.715439 472.180511,156.952301 472.180511,144.222565 
	C468.536682,144.222565 465.497559,144.222565 462.220764,144.222565 
	C462.220764,154.853775 462.220764,165.086838 462.220764,176.703278 
	C461.008545,174.470703 460.392151,173.390121 459.825897,172.283890 
	C455.512939,163.857697 451.289551,155.383774 446.823456,147.039658 
	C446.094421,145.677597 444.398224,144.142700 442.991272,143.969528 
	C439.435852,143.531921 435.790558,143.824448 432.228516,143.824448 
	C432.228516,160.553513 432.228516,176.737778 432.228516,192.778320 
	C435.426025,192.778320 438.211975,192.778320 441.762451,192.778320 
	C441.762451,181.486908 441.762451,170.404007 441.762451,159.321106 
	C447.768616,169.523773 452.892242,179.741211 458.232178,189.844345 
	C458.946289,191.195435 460.655945,192.667252 462.075806,192.867218 
	C465.281342,193.318604 468.593994,193.009018 472.180542,193.009018 
	C472.180542,189.413315 472.180542,186.440933 472.180511,182.478561 
M165.215393,150.324371 
	C158.865463,143.261978 150.829086,141.544785 142.011429,143.719299 
	C129.163269,146.887756 122.199242,160.138168 125.129883,175.057281 
	C127.254700,185.874130 135.457932,193.210281 146.139267,193.845917 
	C157.206833,194.504532 166.641052,188.603836 169.710617,178.399368 
	C172.616745,168.738281 172.067093,159.304596 165.215393,150.324371 
M373.914001,173.502563 
	C376.291016,186.241043 384.243500,193.570999 395.992493,193.852676 
	C408.048126,194.141693 417.049408,187.209290 419.519653,175.149124 
	C420.305908,171.310486 420.291077,167.161270 419.844299,163.245285 
	C418.713776,153.337280 412.241302,146.016708 403.157990,143.657700 
	C393.794403,141.225891 384.099884,144.384659 378.643829,151.835953 
	C374.089417,158.055893 372.789429,165.109207 373.914001,173.502563 
M79.994278,182.473038 
	C79.994278,185.896362 79.994278,189.319687 79.994278,192.671188 
	C83.756386,192.671188 86.821472,192.671188 90.378159,192.671188 
	C90.378159,186.628494 90.378159,180.913269 90.378159,175.377167 
	C94.661224,174.225082 97.130302,175.562164 98.936844,179.077927 
	C100.978935,183.052124 103.397774,186.847855 105.873459,190.574585 
	C106.584099,191.644333 108.001839,192.773636 109.193451,192.892532 
	C112.400330,193.212463 115.660149,193.001831 120.052094,193.001831 
	C115.234779,185.446503 111.020966,178.837692 106.667503,172.009857 
	C113.990341,167.849808 117.104500,161.811722 114.795097,153.916870 
	C112.440506,145.867554 105.583321,143.998444 98.307426,143.603882 
	C92.378326,143.282364 86.417892,143.538513 79.994278,143.538513 
	C79.994278,156.613129 79.994278,169.046143 79.994278,182.473038 
M257.288940,184.721222 
	C255.811493,184.295059 254.342270,183.538101 252.855164,183.501190 
	C247.070847,183.357681 241.280853,183.442703 235.257690,183.442703 
	C235.257690,179.807175 235.257690,176.562744 235.257690,172.753860 
	C241.632065,172.753860 247.842514,172.753860 254.264847,172.753860 
	C254.264847,169.271973 254.264847,166.354568 254.264847,162.943878 
	C247.759186,162.943878 241.526138,162.943878 235.233398,162.943878 
	C235.233398,159.523972 235.233398,156.600250 235.233398,153.036453 
	C242.296478,153.036453 249.169540,153.036453 256.316803,153.036453 
	C255.929733,149.613754 255.618591,146.862366 255.295074,144.001648 
	C244.888702,144.001648 234.943726,144.001648 224.804413,144.001648 
	C224.804413,160.386246 224.804413,176.578583 224.804413,192.735306 
	C235.413406,192.735306 245.658081,192.735306 256.130768,192.735306 
	C256.504456,190.201996 256.842346,187.911438 257.288940,184.721222 
M41.426682,193.018311 
	C44.262161,193.461044 45.238888,192.276108 45.072357,189.425659 
	C44.852306,185.659164 45.018196,181.870132 45.018196,178.269119 
	C49.200310,177.782394 52.864769,177.605896 56.421413,176.892166 
	C64.942520,175.182205 70.034203,168.807922 70.015808,160.273331 
	C69.998077,152.046188 64.866600,145.268494 56.491562,144.292374 
	C49.360088,143.461212 42.054878,144.120682 34.746719,144.120682 
	C34.746719,160.548721 34.746719,176.629196 34.746719,193.018494 
	C36.867809,193.018494 38.684078,193.018494 41.426682,193.018311 
M490.064758,165.528412 
	C487.014252,174.520386 483.963715,183.512344 480.742859,193.006378 
	C483.724426,193.006378 485.941528,193.334747 487.993652,192.894363 
	C489.432770,192.585541 491.332336,191.518723 491.851990,190.292694 
	C495.700562,181.212372 495.608002,181.173203 505.591064,181.174713 
	C507.567993,181.175018 509.544922,181.174759 511.365753,181.174759 
	C516.852234,194.003128 516.852234,194.003128 526.141846,192.493408 
	C526.141846,192.013870 526.273682,191.481201 526.122742,191.046753 
	C520.902405,176.020844 515.687561,160.992706 510.334686,146.013901 
	C510.002197,145.083435 508.594696,143.999496 507.621582,143.931747 
	C504.048523,143.682968 500.447693,143.833115 497.445251,143.833115 
	C494.886780,151.314789 492.586517,158.041412 490.064758,165.528412 
M287.257385,193.013916 
	C293.927795,191.131790 298.424866,187.287811 299.007660,179.942093 
	C299.616882,172.262756 295.109680,167.992142 288.880463,164.955887 
	C285.900604,163.503448 282.655548,162.515533 279.872498,160.771637 
	C278.435455,159.871140 276.595490,157.333313 276.984558,156.325623 
	C277.589874,154.757904 279.916748,152.905518 281.554993,152.865753 
	C286.280212,152.751068 291.025940,153.482376 295.779358,153.882751 
	C296.726440,144.052155 297.676849,143.822937 286.337097,143.009750 
	C284.354736,142.867599 282.330688,142.879257 280.358154,143.103470 
	C272.779663,143.964890 267.443176,148.584976 266.266632,155.146393 
	C265.097809,161.664444 268.200195,167.254166 275.133179,170.837601 
	C277.926605,172.281433 281.107086,173.117523 283.620148,174.916458 
	C285.506256,176.266602 286.607361,178.713333 288.057953,180.671844 
	C285.894562,181.827438 283.684052,184.025085 281.577271,183.929794 
	C276.625488,183.705780 271.723267,182.386185 266.627411,181.479050 
	C266.574768,182.563690 266.644653,183.891022 266.424835,185.168488 
	C265.508209,190.495331 268.009613,192.967682 273.099274,193.115646 
	C277.542145,193.244797 281.991638,193.146912 287.257385,193.013916 
M340.050903,182.461823 
	C341.252991,174.322906 339.184906,169.837952 332.100250,165.960464 
	C329.200745,164.373550 325.812042,163.586700 323.121582,161.742081 
	C321.071136,160.336243 319.770844,157.836227 318.136841,155.822983 
	C320.366119,154.732285 322.572601,152.794968 324.829681,152.734146 
	C329.017548,152.621292 333.234955,153.604233 337.444824,154.131500 
	C338.756287,144.456024 337.690857,143.154541 328.083008,142.998474 
	C325.922180,142.963379 323.737518,142.888901 321.600922,143.143707 
	C314.368835,144.006180 309.062897,148.437149 307.938690,154.365829 
	C306.546753,161.706543 309.134705,166.898361 316.300781,170.706680 
	C318.933655,172.105896 322.000183,172.805344 324.400543,174.490967 
	C326.509369,175.971878 327.963806,178.384659 329.707245,180.385864 
	C327.260010,181.638611 324.782135,183.981323 322.372040,183.913544 
	C317.592560,183.779129 312.850433,182.314911 308.102173,181.402100 
	C307.139984,191.989365 307.938660,192.982285 318.451141,193.800003 
	C320.271423,193.941574 322.132721,194.023041 323.937683,193.812134 
	C331.023560,192.984131 337.331512,190.878952 340.050903,182.461823 
M205.364441,164.471954 
	C201.431793,164.471954 197.499130,164.471954 193.490723,164.471954 
	C193.490723,160.375824 193.490723,156.979889 193.490723,153.095200 
	C200.549454,153.095200 207.298981,153.095200 214.321228,153.095200 
	C214.058029,149.823212 213.836853,147.073456 213.604340,144.182953 
	C203.110931,144.182953 193.077744,144.182953 183.155746,144.182953 
	C183.155746,160.605820 183.155746,176.673523 183.155746,192.736237 
	C186.572968,192.736237 189.658585,192.736237 193.262390,192.736237 
	C193.262390,186.415253 193.262390,180.349289 193.262390,173.814545 
	C199.862808,173.814545 205.941330,173.814545 211.941269,173.814545 
	C211.941269,170.534760 211.941269,167.742584 211.941269,164.472153 
	C209.916000,164.472153 208.116470,164.472153 205.364441,164.471954 
M536.884766,143.860458 
	C536.404114,145.288132 535.517029,146.712677 535.505981,148.143997 
	C535.400330,161.773834 535.430969,175.404846 535.463684,189.035431 
	C535.466675,190.294189 535.754700,191.552246 535.935974,193.017578 
	C543.579529,193.017578 550.882568,193.017578 558.185608,193.017578 
	C566.859253,193.017578 566.860535,193.017685 567.566956,184.299728 
	C567.578369,184.159042 567.425659,184.005051 567.013916,183.205521 
	C560.358521,183.205521 553.331360,183.205521 545.803040,183.205521 
	C545.803040,169.701431 545.803040,156.840485 545.803040,143.816696 
	C542.784119,143.816696 540.295471,143.816696 536.884766,143.860458 
M362.162476,178.495483 
	C362.162476,167.066910 362.162476,155.638351 362.162476,144.051300 
	C358.489777,144.051300 355.406494,144.051300 352.198608,144.051300 
	C352.198608,160.445435 352.198608,176.623520 352.198608,192.694733 
	C355.651733,192.694733 358.733887,192.694733 362.162476,192.694733 
	C362.162476,188.098083 362.162476,183.795212 362.162476,178.495483 
z"/>
<path fill="#FFFEFE" opacity="1.000000" stroke="none" 
	d="
M602.000000,73.531342 
	C600.380737,74.159004 598.761475,74.457138 597.142212,74.457306 
	C400.812012,74.478188 204.481842,74.476830 8.151646,74.480125 
	C6.319247,74.480156 4.486848,74.526871 2.046906,74.668465 
	C1.439361,74.785141 1.000000,75.000000 1.000000,75.000000 
	C1.000000,50.411217 1.000000,25.822433 1.000000,1.000000 
	C22.353661,1.000000 43.708172,1.000000 65.513924,1.203574 
	C65.965164,1.407148 65.943726,1.815221 65.555542,1.894159 
	C51.079758,4.750271 40.973606,14.275927 39.344307,27.450291 
	C38.517059,34.139362 39.199589,41.015148 39.199589,47.883537 
	C41.335472,47.883537 43.231884,47.883537 45.526173,47.883537 
	C45.526173,43.135563 45.521412,38.662579 45.527027,34.189610 
	C45.547253,18.086529 55.538616,8.170513 71.759460,8.170318 
	C224.829880,8.168474 377.900299,8.168824 530.970703,8.169793 
	C547.576416,8.169898 557.659424,18.183329 557.824280,34.858974 
	C557.866699,39.148533 557.830688,43.438869 557.830688,47.836098 
	C560.162109,47.836098 562.030518,47.836098 564.168213,47.836098 
	C564.168213,42.702427 564.238342,37.892128 564.155579,33.084454 
	C563.867004,16.317478 553.635620,4.540813 537.045715,1.611214 
	C537.034912,1.407170 537.000000,1.000000 537.000000,1.000000 
	C558.597778,1.000000 580.195496,1.000000 602.000000,1.000000 
	C602.000000,25.020498 602.000000,49.041592 602.000000,73.531342 
z"/>
<path fill="#FA180A" opacity="1.000000" stroke="none" 
	d="
M295.460632,602.000000 
	C274.296265,592.130798 257.178192,576.930603 238.729874,563.766052 
	C176.810959,519.581299 115.242172,474.906128 53.473808,430.509888 
	C43.654541,423.452271 38.826252,414.353333 38.902332,402.128052 
	C39.125267,366.303741 38.981693,330.477142 38.981693,294.651459 
	C38.981693,292.824249 38.981693,290.997070 38.981693,288.808929 
	C41.058952,288.808929 42.957436,288.808929 45.558464,288.808929 
	C45.558464,290.580811 45.558464,292.346893 45.558464,294.112976 
	C45.558468,330.105316 45.661285,366.098114 45.491158,402.089661 
	C45.444626,411.933960 49.228088,419.241272 57.181370,424.960388 
	C133.264664,479.671265 209.276962,534.480896 285.322296,589.244629 
	C296.920441,597.596985 306.249695,597.547913 317.811920,589.218933 
	C393.309143,534.833496 468.753632,480.374573 544.368774,426.153564 
	C553.804321,419.387634 557.969055,410.969543 557.893677,399.517975 
	C557.663208,364.526978 557.809937,329.533447 557.809937,294.540924 
	C557.809937,292.722168 557.809937,290.903442 557.809937,288.767609 
	C559.864502,288.767609 561.622437,288.767609 563.926880,288.767609 
	C564.010986,290.252380 564.178040,291.832306 564.178650,293.412262 
	C564.193481,329.571228 564.092651,365.730560 564.243958,401.888916 
	C564.295532,414.224060 559.399597,423.496033 549.396790,430.685120 
	C473.299286,485.376434 397.318359,540.229980 321.181946,594.867004 
	C317.117432,597.783813 311.978760,599.203735 307.170044,601.660217 
	C303.307098,602.000000 299.614166,602.000000 295.460632,602.000000 
z"/>
<path fill="#FEC3BF" opacity="1.000000" stroke="none" 
	d="
M536.536133,1.000000 
	C537.000000,1.000000 537.034912,1.407170 536.578674,1.686395 
	C380.391418,1.975062 224.660416,1.984838 68.929398,1.986559 
	C67.934174,1.986570 66.938950,1.874796 65.943726,1.815221 
	C65.943726,1.815221 65.965164,1.407148 65.982582,1.203574 
	C222.690750,1.000000 379.381500,1.000000 536.536133,1.000000 
z"/>
<path fill="#FD877F" opacity="1.000000" stroke="none" 
	d="
M1.000000,75.468658 
	C1.000000,75.000000 1.439361,74.785141 1.675138,74.850006 
	C1.942028,136.954163 1.973141,198.993439 2.018080,261.498871 
	C1.860799,261.996735 1.689692,262.028473 1.259293,262.030090 
	C1.000000,199.979111 1.000000,137.958206 1.000000,75.468658 
z"/>
<path fill="#FB4A3F" opacity="1.000000" stroke="none" 
	d="
M601.233704,262.021698 
	C600.989075,202.131424 600.992737,142.312241 601.018250,82.493080 
	C601.019043,80.510811 601.242188,78.528641 601.680908,76.273209 
	C602.000000,137.687561 602.000000,199.375122 602.000000,261.531342 
	C601.828430,262.030914 601.656921,262.061859 601.233704,262.021698 
z"/>
<path fill="#FA1103" opacity="1.000000" stroke="none" 
	d="
M240.596725,387.551239 
	C251.970612,360.201477 263.215210,333.211304 274.315796,306.162048 
	C276.364685,301.169464 279.680847,299.015961 285.048584,299.103485 
	C296.045471,299.282776 307.049255,299.279877 318.046295,299.104736 
	C323.423035,299.019104 326.713715,301.236908 328.767120,306.198853 
	C349.413177,356.088318 370.159729,405.936188 390.851929,455.806580 
	C393.406403,461.963226 391.668030,464.478973 384.854828,464.514191 
	C374.188629,464.569336 363.519379,464.390411 352.856476,464.585724 
	C347.286835,464.687683 343.987305,462.476929 341.834503,457.239899 
	C329.644318,427.585144 317.229797,398.022614 304.871918,368.436951 
	C304.072815,366.523804 303.108673,364.679596 302.221313,362.803314 
	C301.698425,362.761780 301.175537,362.720276 300.652679,362.678741 
	C291.963165,383.478973 283.273682,404.279205 274.250885,425.877289 
	C276.907715,426.136047 278.625977,426.434875 280.346436,426.448059 
	C287.679199,426.504303 295.012848,426.508789 302.345734,426.463959 
	C305.709747,426.443359 307.837006,427.707611 309.138885,431.052368 
	C312.332031,439.256378 315.910461,447.309601 319.255219,455.455780 
	C321.706451,461.425781 319.782776,464.494812 313.438019,464.504944 
	C281.605286,464.555695 249.772446,464.552216 217.939713,464.509338 
	C211.274063,464.500336 209.681671,461.889954 212.307709,455.558319 
	C221.664917,432.997040 231.045868,410.445648 240.596725,387.551239 
z"/>
<path fill="#FFF8F8" opacity="1.000000" stroke="none" 
	d="
M472.180542,182.973541 
	C472.180542,186.440933 472.180542,189.413315 472.180542,193.009018 
	C468.593994,193.009018 465.281342,193.318604 462.075806,192.867218 
	C460.655945,192.667252 458.946289,191.195435 458.232178,189.844345 
	C452.892242,179.741211 447.768616,169.523773 441.762451,159.321106 
	C441.762451,170.404007 441.762451,181.486908 441.762451,192.778320 
	C438.211975,192.778320 435.426025,192.778320 432.228516,192.778320 
	C432.228516,176.737778 432.228516,160.553513 432.228516,143.824448 
	C435.790558,143.824448 439.435852,143.531921 442.991272,143.969528 
	C444.398224,144.142700 446.094421,145.677597 446.823456,147.039658 
	C451.289551,155.383774 455.512939,163.857697 459.825897,172.283890 
	C460.392151,173.390121 461.008545,174.470703 462.220764,176.703278 
	C462.220764,165.086838 462.220764,154.853775 462.220764,144.222565 
	C465.497559,144.222565 468.536682,144.222565 472.180511,144.222565 
	C472.180511,156.952301 472.180511,169.715439 472.180542,182.973541 
z"/>
<path fill="#FFF8F8" opacity="1.000000" stroke="none" 
	d="
M165.454803,150.592880 
	C172.067093,159.304596 172.616745,168.738281 169.710617,178.399368 
	C166.641052,188.603836 157.206833,194.504532 146.139267,193.845917 
	C135.457932,193.210281 127.254700,185.874130 125.129883,175.057281 
	C122.199242,160.138168 129.163269,146.887756 142.011429,143.719299 
	C150.829086,141.544785 158.865463,143.261978 165.454803,150.592880 
M139.709396,180.817688 
	C148.190887,187.135834 157.615250,184.300461 159.570450,174.321259 
	C160.425552,169.956909 159.972580,165.047913 158.924042,160.671249 
	C157.586166,155.086884 153.312683,152.511856 147.839828,152.543091 
	C142.372131,152.574295 138.524399,155.227783 136.751434,160.803635 
	C134.595474,167.583954 134.794327,174.219971 139.709396,180.817688 
z"/>
<path fill="#FFF8F8" opacity="1.000000" stroke="none" 
	d="
M373.875427,173.083145 
	C372.789429,165.109207 374.089417,158.055893 378.643829,151.835953 
	C384.099884,144.384659 393.794403,141.225891 403.157990,143.657700 
	C412.241302,146.016708 418.713776,153.337280 419.844299,163.245285 
	C420.291077,167.161270 420.305908,171.310486 419.519653,175.149124 
	C417.049408,187.209290 408.048126,194.141693 395.992493,193.852676 
	C384.243500,193.570999 376.291016,186.241043 373.875427,173.083145 
M392.399475,153.203094 
	C382.742096,156.678894 382.553436,174.365860 388.456360,180.596176 
	C393.674713,186.103912 403.373566,185.497757 406.643616,178.695877 
	C408.480072,174.876038 409.070282,170.109634 408.998016,165.790192 
	C408.835510,156.083557 402.917511,151.586014 392.399475,153.203094 
z"/>
<path fill="#FFFBFB" opacity="1.000000" stroke="none" 
	d="
M79.994278,181.976105 
	C79.994278,169.046143 79.994278,156.613129 79.994278,143.538513 
	C86.417892,143.538513 92.378326,143.282364 98.307426,143.603882 
	C105.583321,143.998444 112.440506,145.867554 114.795097,153.916870 
	C117.104500,161.811722 113.990341,167.849808 106.667503,172.009857 
	C111.020966,178.837692 115.234779,185.446503 120.052094,193.001831 
	C115.660149,193.001831 112.400330,193.212463 109.193451,192.892532 
	C108.001839,192.773636 106.584099,191.644333 105.873459,190.574585 
	C103.397774,186.847855 100.978935,183.052124 98.936844,179.077927 
	C97.130302,175.562164 94.661224,174.225082 90.378159,175.377167 
	C90.378159,180.913269 90.378159,186.628494 90.378159,192.671188 
	C86.821472,192.671188 83.756386,192.671188 79.994278,192.671188 
	C79.994278,189.319687 79.994278,185.896362 79.994278,181.976105 
M99.456024,165.336945 
	C103.559128,164.177109 105.861290,161.721359 104.506874,157.303741 
	C103.201256,153.045273 97.037231,151.645172 90.481842,153.769180 
	C90.481842,157.734314 90.481842,161.632248 90.481842,165.574570 
	C93.431541,165.574570 96.045769,165.574570 99.456024,165.336945 
z"/>
<path fill="#FFF5F5" opacity="1.000000" stroke="none" 
	d="
M257.234558,185.171051 
	C256.842346,187.911438 256.504456,190.201996 256.130768,192.735306 
	C245.658081,192.735306 235.413406,192.735306 224.804413,192.735306 
	C224.804413,176.578583 224.804413,160.386246 224.804413,144.001648 
	C234.943726,144.001648 244.888702,144.001648 255.295074,144.001648 
	C255.618591,146.862366 255.929733,149.613754 256.316803,153.036453 
	C249.169540,153.036453 242.296478,153.036453 235.233398,153.036453 
	C235.233398,156.600250 235.233398,159.523972 235.233398,162.943878 
	C241.526138,162.943878 247.759186,162.943878 254.264847,162.943878 
	C254.264847,166.354568 254.264847,169.271973 254.264847,172.753860 
	C247.842514,172.753860 241.632065,172.753860 235.257690,172.753860 
	C235.257690,176.562744 235.257690,179.807175 235.257690,183.442703 
	C241.280853,183.442703 247.070847,183.357681 252.855164,183.501190 
	C254.342270,183.538101 255.811493,184.295059 257.234558,185.171051 
z"/>
<path fill="#FFF5F4" opacity="1.000000" stroke="none" 
	d="
M40.963516,193.018402 
	C38.684078,193.018494 36.867809,193.018494 34.746719,193.018494 
	C34.746719,176.629196 34.746719,160.548721 34.746719,144.120682 
	C42.054878,144.120682 49.360088,143.461212 56.491562,144.292374 
	C64.866600,145.268494 69.998077,152.046188 70.015808,160.273331 
	C70.034203,168.807922 64.942520,175.182205 56.421413,176.892166 
	C52.864769,177.605896 49.200310,177.782394 45.018196,178.269119 
	C45.018196,181.870132 44.852306,185.659164 45.072357,189.425659 
	C45.238888,192.276108 44.262161,193.461044 40.963516,193.018402 
M48.405647,168.139359 
	C49.899254,168.062180 51.429424,168.166077 52.879486,167.873276 
	C56.945435,167.052216 59.425457,164.678375 59.345737,160.317657 
	C59.270271,156.189133 56.812202,153.831039 52.980755,153.199020 
	C50.468346,152.784576 47.832111,153.120743 45.019161,153.120743 
	C45.019161,157.593689 44.868908,161.575180 45.131378,165.529266 
	C45.192261,166.446442 46.660881,167.270187 48.405647,168.139359 
z"/>
<path fill="#FFFAFA" opacity="1.000000" stroke="none" 
	d="
M490.175507,165.148224 
	C492.586517,158.041412 494.886780,151.314789 497.445251,143.833115 
	C500.447693,143.833115 504.048523,143.682968 507.621582,143.931747 
	C508.594696,143.999496 510.002197,145.083435 510.334686,146.013901 
	C515.687561,160.992706 520.902405,176.020844 526.122742,191.046753 
	C526.273682,191.481201 526.141846,192.013870 526.141846,192.493408 
	C516.852234,194.003128 516.852234,194.003128 511.365753,181.174759 
	C509.544922,181.174759 507.567993,181.175018 505.591064,181.174713 
	C495.608002,181.173203 495.700562,181.212372 491.851990,190.292694 
	C491.332336,191.518723 489.432770,192.585541 487.993652,192.894363 
	C485.941528,193.334747 483.724426,193.006378 480.742859,193.006378 
	C483.963715,183.512344 487.014252,174.520386 490.175507,165.148224 
M502.964661,154.920258 
	C501.213959,160.372391 499.463257,165.824509 497.594116,171.645401 
	C501.609985,171.645401 505.026520,171.645401 508.903290,171.645401 
	C507.090393,165.833344 505.333099,160.199600 502.964661,154.920258 
z"/>
<path fill="#FFF7F6" opacity="1.000000" stroke="none" 
	d="
M286.847778,193.081619 
	C281.991638,193.146912 277.542145,193.244797 273.099274,193.115646 
	C268.009613,192.967682 265.508209,190.495331 266.424835,185.168488 
	C266.644653,183.891022 266.574768,182.563690 266.627411,181.479050 
	C271.723267,182.386185 276.625488,183.705780 281.577271,183.929794 
	C283.684052,184.025085 285.894562,181.827438 288.057953,180.671844 
	C286.607361,178.713333 285.506256,176.266602 283.620148,174.916458 
	C281.107086,173.117523 277.926605,172.281433 275.133179,170.837601 
	C268.200195,167.254166 265.097809,161.664444 266.266632,155.146393 
	C267.443176,148.584976 272.779663,143.964890 280.358154,143.103470 
	C282.330688,142.879257 284.354736,142.867599 286.337097,143.009750 
	C297.676849,143.822937 296.726440,144.052155 295.779358,153.882751 
	C291.025940,153.482376 286.280212,152.751068 281.554993,152.865753 
	C279.916748,152.905518 277.589874,154.757904 276.984558,156.325623 
	C276.595490,157.333313 278.435455,159.871140 279.872498,160.771637 
	C282.655548,162.515533 285.900604,163.503448 288.880463,164.955887 
	C295.109680,167.992142 299.616882,172.262756 299.007660,179.942093 
	C298.424866,187.287811 293.927795,191.131790 286.847778,193.081619 
z"/>
<path fill="#FFF7F7" opacity="1.000000" stroke="none" 
	d="
M339.991150,182.845032 
	C337.331512,190.878952 331.023560,192.984131 323.937683,193.812134 
	C322.132721,194.023041 320.271423,193.941574 318.451141,193.800003 
	C307.938660,192.982285 307.139984,191.989365 308.102173,181.402100 
	C312.850433,182.314911 317.592560,183.779129 322.372040,183.913544 
	C324.782135,183.981323 327.260010,181.638611 329.707245,180.385864 
	C327.963806,178.384659 326.509369,175.971878 324.400543,174.490967 
	C322.000183,172.805344 318.933655,172.105896 316.300781,170.706680 
	C309.134705,166.898361 306.546753,161.706543 307.938690,154.365829 
	C309.062897,148.437149 314.368835,144.006180 321.600922,143.143707 
	C323.737518,142.888901 325.922180,142.963379 328.083008,142.998474 
	C337.690857,143.154541 338.756287,144.456024 337.444824,154.131500 
	C333.234955,153.604233 329.017548,152.621292 324.829681,152.734146 
	C322.572601,152.794968 320.366119,154.732285 318.136841,155.822998 
	C319.770844,157.836227 321.071136,160.336243 323.121582,161.742081 
	C325.812042,163.586700 329.200745,164.373550 332.100250,165.960464 
	C339.184906,169.837952 341.252991,174.322906 339.991150,182.845032 
z"/>
<path fill="#FFFCFC" opacity="1.000000" stroke="none" 
	d="
M205.840698,164.472046 
	C208.116470,164.472153 209.916000,164.472153 211.941269,164.472153 
	C211.941269,167.742584 211.941269,170.534760 211.941269,173.814545 
	C205.941330,173.814545 199.862808,173.814545 193.262390,173.814545 
	C193.262390,180.349289 193.262390,186.415253 193.262390,192.736237 
	C189.658585,192.736237 186.572968,192.736237 183.155746,192.736237 
	C183.155746,176.673523 183.155746,160.605820 183.155746,144.182953 
	C193.077744,144.182953 203.110931,144.182953 213.604340,144.182953 
	C213.836853,147.073456 214.058029,149.823212 214.321228,153.095200 
	C207.298981,153.095200 200.549454,153.095200 193.490723,153.095200 
	C193.490723,156.979889 193.490723,160.375824 193.490723,164.471954 
	C197.499130,164.471954 201.431793,164.471954 205.840698,164.472046 
z"/>
<path fill="#FFF5F5" opacity="1.000000" stroke="none" 
	d="
M537.345764,143.838577 
	C540.295471,143.816696 542.784119,143.816696 545.803040,143.816696 
	C545.803040,156.840485 545.803040,169.701431 545.803040,183.205521 
	C553.331360,183.205521 560.358521,183.205521 567.013916,183.205521 
	C567.425659,184.005051 567.578369,184.159042 567.566956,184.299728 
	C566.860535,193.017685 566.859253,193.017578 558.185608,193.017578 
	C550.882568,193.017578 543.579529,193.017578 535.935974,193.017578 
	C535.754700,191.552246 535.466675,190.294189 535.463684,189.035431 
	C535.430969,175.404846 535.400330,161.773834 535.505981,148.143997 
	C535.517029,146.712677 536.404114,145.288132 537.345764,143.838577 
z"/>
<path fill="#FFFFFF" opacity="1.000000" stroke="none" 
	d="
M362.162476,178.993912 
	C362.162476,183.795212 362.162476,188.098083 362.162476,192.694733 
	C358.733887,192.694733 355.651733,192.694733 352.198608,192.694733 
	C352.198608,176.623520 352.198608,160.445435 352.198608,144.051300 
	C355.406494,144.051300 358.489777,144.051300 362.162476,144.051300 
	C362.162476,155.638351 362.162476,167.066910 362.162476,178.993912 
z"/>
<path fill="#FA1102" opacity="1.000000" stroke="none" 
	d="
M65.555542,1.894159 
	C66.938950,1.874796 67.934174,1.986570 68.929398,1.986559 
	C224.660416,1.984838 380.391418,1.975062 536.589478,1.890439 
	C553.635620,4.540813 563.867004,16.317478 564.155579,33.084454 
	C564.238342,37.892128 564.168213,42.702427 564.168213,47.836098 
	C562.030518,47.836098 560.162109,47.836098 557.830688,47.836098 
	C557.830688,43.438869 557.866699,39.148533 557.824280,34.858974 
	C557.659424,18.183329 547.576416,8.169898 530.970703,8.169793 
	C377.900299,8.168824 224.829880,8.168474 71.759460,8.170318 
	C55.538616,8.170513 45.547253,18.086529 45.527027,34.189610 
	C45.521412,38.662579 45.526173,43.135563 45.526173,47.883537 
	C43.231884,47.883537 41.335472,47.883537 39.199589,47.883537 
	C39.199589,41.015148 38.517059,34.139362 39.344307,27.450291 
	C40.973606,14.275927 51.079758,4.750271 65.555542,1.894159 
z"/>
<path fill="#FA1203" opacity="1.000000" stroke="none" 
	d="
M139.450119,180.534821 
	C134.794327,174.219971 134.595474,167.583954 136.751434,160.803635 
	C138.524399,155.227783 142.372131,152.574295 147.839828,152.543091 
	C153.312683,152.511856 157.586166,155.086884 158.924042,160.671249 
	C159.972580,165.047913 160.425552,169.956909 159.570450,174.321259 
	C157.615250,184.300461 148.190887,187.135834 139.450119,180.534821 
z"/>
<path fill="#FA1203" opacity="1.000000" stroke="none" 
	d="
M392.806671,153.100952 
	C402.917511,151.586014 408.835510,156.083557 408.998016,165.790192 
	C409.070282,170.109634 408.480072,174.876038 406.643616,178.695877 
	C403.373566,185.497757 393.674713,186.103912 388.456360,180.596176 
	C382.553436,174.365860 382.742096,156.678894 392.806671,153.100952 
z"/>
<path fill="#FA1A0C" opacity="1.000000" stroke="none" 
	d="
M99.058006,165.455750 
	C96.045769,165.574570 93.431541,165.574570 90.481842,165.574570 
	C90.481842,161.632248 90.481842,157.734314 90.481842,153.769180 
	C97.037231,151.645172 103.201256,153.045273 104.506874,157.303741 
	C105.861290,161.721359 103.559128,164.177109 99.058006,165.455750 
z"/>
<path fill="#FA1102" opacity="1.000000" stroke="none" 
	d="
M47.943695,168.138138 
	C46.660881,167.270187 45.192261,166.446442 45.131378,165.529266 
	C44.868908,161.575180 45.019161,157.593689 45.019161,153.120743 
	C47.832111,153.120743 50.468346,152.784576 52.980755,153.199020 
	C56.812202,153.831039 59.270271,156.189133 59.345737,160.317657 
	C59.425457,164.678375 56.945435,167.052216 52.879486,167.873276 
	C51.429424,168.166077 49.899254,168.062180 47.943695,168.138138 
z"/>
<path fill="#FA2012" opacity="1.000000" stroke="none" 
	d="
M503.270264,154.743057 
	C505.333099,160.199600 507.090393,165.833344 508.903290,171.645401 
	C505.026520,171.645401 501.609985,171.645401 497.594116,171.645401 
	C499.463257,165.824509 501.213959,160.372391 503.270264,154.743057 
z"/>
</svg>